<?xml version="1.0" encoding="utf-8"?>
<!-- Generator: Fusion 360, Shaper Origin Export Add-In, Version 1.5.0  -->
<svg enable-background="new 0 0 20 7.5" height="7.5cm" shaper:fusionaddin="version:1.5.0" version="1.1" viewBox="0 0 20 7.5" width="20cm" x="0cm" xml:space="preserve" xmlns="http://www.w3.org/2000/svg" xmlns:shaper="http://www.shapertools.com/namespaces/shaper" xmlns:xlink="http://www.w3.org/1999/xlink" y="0cm"><path d="M-19.7,5.7 L-19,5.7 -19,6 -18,6 -18,5.7 -17,5.7 -17,6 -16,6 -16,5.7 -15,5.7 -15,6 -14,6 -14,5.7 -13,5.7 -13,6 -12,6 -12,5.7 -11,5.7 -11,6 -10,6 -10,5.7 -9,5.7 -9,6 -8,6 -8,5.7 -7,5.7 -7,6 -6,6 -6,5.7 -5,5.7 -5,6 -4,6 -4,5.7 -3,5.7 -3,6 -2,6 -2,5.7 -1,5.7 -1,6 -0,6 -0,4.5 -0.3,4.5 -0.3,3 -0,3 -0,1.5 -0.3,1.5 -0.3,-0 0,0 0,-1.5 -1,-1.5 -1,-1.2 -2,-1.2 -2,-1.5 -3,-1.5 -3,-1.2 -4,-1.2 -4,-1.5 -5,-1.5 -5,-1.2 -6,-1.2 -6,-1.5 -7,-1.5 -7,-1.2 -8,-1.2 -8,-1.5 -9,-1.5 -9,-1.2 -10,-1.2 -10,-1.5 -11,-1.5 -11,-1.2 -12,-1.2 -12,-1.5 -13,-1.5 -13,-1.2 -14,-1.2 -14,-1.5 -15,-1.5 -15,-1.2 -16,-1.2 -16,-1.5 -17,-1.5 -17,-1.2 -18,-1.2 -18,-1.5 -19,-1.5 -19,-1.2 -19.999983,-1.2 -19.999983,-0 -19.7,-0 -19.7,1.5 -19.999983,1.5 -19.999983,3 -19.7,3 -19.7,4.5 -20,4.5 -20,6 -19.7,6 -19.7,5.7z" fill="rgb(0,0,0)" shaper:cutDepth="0.003" shaper:pathType="exterior" transform="matrix(1,0,0,-1,20,6)" vector-effect="non-scaling-stroke" /></svg>