<?xml version="1.0" encoding="utf-8"?>
<!-- Generator: Fusion 360, Shaper Origin Export Add-In, Version 1.5.0  -->
<svg enable-background="new 0 0 20 7.5" height="7.5cm" shaper:fusionaddin="version:1.5.0" version="1.1" viewBox="0 0 20 7.5" width="20cm" x="0cm" xml:space="preserve" xmlns="http://www.w3.org/2000/svg" xmlns:shaper="http://www.shapertools.com/namespaces/shaper" xmlns:xlink="http://www.w3.org/1999/xlink" y="0cm"><path d="M17,-3 L17,-2.7 16,-2.7 16,-3 15,-3 15,-2.7 14,-2.7 14,-3 13,-3 13,-2.7 12,-2.7 12,-3 11,-3 11,-2.7 10,-2.7 10,-3 9,-3 9,-2.7 8,-2.7 8,-3 7,-3 7,-2.7 6,-2.7 6,-3 5,-3 5,-2.7 4,-2.7 4,-3 3,-3 3,-2.7 2,-2.7 2,-3 1,-3 1,-2.7 0.3,-2.7 0.3,-1.5 0,-1.5 0,0 0.3,0 0.3,1.5 -0,1.5 -0,3 0.3,3 0.3,4.2 1,4.2 1,4.5 2,4.5 2,4.2 3,4.2 3,4.5 4,4.5 4,4.2 5,4.2 5,4.5 6,4.5 6,4.2 7,4.2 7,4.5 8,4.5 8,4.2 9,4.2 9,4.5 10,4.5 10,4.2 11,4.2 11,4.5 12,4.5 12,4.2 13,4.2 13,4.5 14,4.5 14,4.2 15,4.2 15,4.5 16,4.5 16,4.2 17,4.2 17,4.5 18,4.5 18,4.2 19,4.2 19,4.5 19.7,4.5 19.7,3 20,3 20,1.5 19.7,1.5 19.7,0 20,0 20,-1.5 19.7,-1.5 19.7,-3 19,-3 19,-2.7 18,-2.7 18,-3 17,-3z" fill="rgb(0,0,0)" shaper:cutDepth="0.003" shaper:pathType="exterior" transform="matrix(1,0,0,-1,0,4.5)" vector-effect="non-scaling-stroke" /></svg>