<?xml version="1.0" encoding="utf-8"?>
<!-- Generator: Fusion 360, Shaper Origin Export Add-In, Version 1.5.0  -->
<svg enable-background="new 0 0 20 7.5" height="7.5cm" shaper:fusionaddin="version:1.5.0" version="1.1" viewBox="0 0 20 7.5" width="20cm" x="0cm" xml:space="preserve" xmlns="http://www.w3.org/2000/svg" xmlns:shaper="http://www.shapertools.com/namespaces/shaper" xmlns:xlink="http://www.w3.org/1999/xlink" y="0cm"><path d="M19.7,7.2 L19,7.2 19,7.5 18,7.5 18,7.2 17,7.2 17,7.5 16,7.5 16,7.2 15,7.2 15,7.5 14,7.5 14,7.2 13,7.2 13,7.5 12,7.5 12,7.2 11,7.2 11,7.5 10,7.5 10,7.2 9,7.2 9,7.5 8,7.5 8,7.2 7,7.2 7,7.5 6,7.5 6,7.2 5,7.2 5,7.5 4,7.5 4,7.2 3,7.2 3,7.5 2,7.5 2,7.2 1,7.2 1,7.5 -0,7.5 -0,6 0.3,6 0.3,4.5 -0,4.5 -0,3 0.3,3 0.3,1.5 -0,1.5 0,0 1,0 1,0.3 2,0.3 2,0 3,0 3,0.3 4,0.3 4,0 5,0 5,0.3 6,0.3 6,0 7,0 7,0.3 8,0.3 8,0 9,0 9,0.3 10,0.3 10,0 11,0 11,0.3 12,0.3 12,0 13,0 13,0.3 14,0.3 14,0 15,0 15,0.3 16,0.3 16,0 17,0 17,0.3 18,0.3 18,0 19,0 19,0.3 19.999983,0.3 19.999983,1.5 19.7,1.5 19.7,3 19.999983,3 19.999983,4.5 19.7,4.5 19.7,6 20,6 20,7.5 19.7,7.5 19.7,7.2z" fill="rgb(0,0,0)" shaper:cutDepth="0.003" shaper:pathType="exterior" transform="matrix(1,0,0,-1,0,7.5)" vector-effect="non-scaling-stroke" /></svg>