<?xml version="1.0" encoding="utf-8"?>
<!-- Generator: Fusion 360, Shaper Origin Export Add-In, Version 1.5.0  -->
<svg enable-background="new 0 0 20 20" height="20cm" shaper:fusionaddin="version:1.5.0" version="1.1" viewBox="0 0 20 20" width="20cm" x="0cm" xml:space="preserve" xmlns="http://www.w3.org/2000/svg" xmlns:shaper="http://www.shapertools.com/namespaces/shaper" xmlns:xlink="http://www.w3.org/1999/xlink" y="0cm"><path d="M18.748078,14.15 L18.448078,14.15 18.448078,15.15 18.748078,15.15 18.748078,15.85 18.448078,15.85 18.448078,16.15 17.748078,16.15 17.748078,15.8443409 16.748078,15.8443409 16.748078,16.15 15.748078,16.15 15.748078,15.85 14.748078,15.85 14.748078,16.15 13.748078,16.15 13.748078,15.85 12.748078,15.85 12.748078,16.15 11.748078,16.15 11.748078,15.85 10.748078,15.85 10.748078,16.15 9.748078,16.15 9.748078,15.85 8.748078,15.85 8.748078,16.15 7.748078,16.15 7.748078,15.85 6.748078,15.85 6.748078,16.15 5.748078,16.15 5.748078,15.85 4.748078,15.85 4.748078,16.15 3.748078,16.15 3.748078,15.85 2.748078,15.85 2.748078,16.15 1.748078,16.15 1.748078,15.85 0.748078,15.85 0.748078,16.15 -0.251922,16.15 -0.251922,15.85 -1.251922,15.85 -1.251922,15.15 -0.951922,15.15 -0.951922,14.15 -1.251922,14.15 -1.251922,13.15 -0.951922,13.15 -0.951922,12.15 -1.251922,12.15 -1.251922,11.15 -0.951922,11.15 -0.951922,10.15 -1.251922,10.15 -1.251922,9.15 -0.951922,9.15 -0.951922,8.15 -1.251922,8.15 -1.251922,7.15 -0.951922,7.15 -0.951922,6.15 -1.251922,6.15 -1.251922,5.15 -0.951922,5.15 -0.951922,4.15 -1.251922,4.15 -1.251922,3.15 -0.951922,3.15 -0.951922,2.15 -1.251922,2.15 -1.251922,1.15 -0.951922,1.15 -0.951922,0.15 -1.251922,0.15 -1.251922,-0.85 -0.951922,-0.85 -0.951922,-1.85 -1.251922,-1.85 -1.251922,-2.85 -0.951922,-2.85 -0.951922,-3.55 -0.2519217,-3.55 -0.2519217,-3.85 0.7480783,-3.85 0.7480783,-3.55 1.7480783,-3.55 1.7480783,-3.85 2.7480783,-3.85 2.7480783,-3.55 3.7480783,-3.55 3.7480783,-3.85 4.7480783,-3.85 4.7480783,-3.55 5.7480783,-3.55 5.7480783,-3.85 6.7480783,-3.85 6.7480783,-3.55 7.7480783,-3.55 7.7480783,-3.85 8.7480783,-3.85 8.7480783,-3.55 9.7480783,-3.55 9.7480783,-3.85 10.7480783,-3.85 10.7480783,-3.55 11.7480783,-3.55 11.7480783,-3.85 12.7480783,-3.85 12.7480783,-3.55 13.7480783,-3.55 13.7480783,-3.85 14.7480783,-3.85 14.7480783,-3.55 15.7480783,-3.55 15.7480783,-3.85 16.7480783,-3.85 16.7480783,-3.55 17.7480783,-3.55 17.7480783,-3.85 18.448078,-3.85 18.448078,-2.85 18.748078,-2.85 18.748078,-1.85 18.448078,-1.85 18.448078,-0.85 18.748078,-0.85 18.748078,0.15 18.448078,0.15 18.448078,1.15 18.748078,1.15 18.748078,2.15 18.448078,2.15 18.448078,3.15 18.748078,3.15 18.748078,4.15 18.448078,4.15 18.448078,5.15 18.748078,5.15 18.748078,6.15 18.448078,6.15 18.448078,7.15 18.748078,7.15 18.748078,8.15 18.448078,8.15 18.448078,9.15 18.748078,9.15 18.748078,10.15 18.448078,10.15 18.448078,11.15 18.748078,11.15 18.748078,12.15 18.448078,12.15 18.448078,13.15 18.748078,13.15 18.748078,14.15z" fill="rgb(0,0,0)" shaper:cutDepth="0.003" shaper:pathType="exterior" transform="matrix(1,0,0,-1,1.251922,16.15)" vector-effect="non-scaling-stroke" /><path d="M4.872726,8.3 a0.4,0.4 0 1,1 0.8,0 a0.4,0.4 0 1,1 -0.8,0z" fill="rgb(255,255,255)" shaper:cutDepth="0.003" shaper:pathType="interior" stroke="rgb(0,0,0)" transform="matrix(1,0,0,-1,1.251922,16.15)" vector-effect="non-scaling-stroke" /><path d="M1.322726,1.2 a0.4,0.4 0 1,1 0.8,0 a0.4,0.4 0 1,1 -0.8,0z" fill="rgb(255,255,255)" shaper:cutDepth="0.003" shaper:pathType="interior" stroke="rgb(0,0,0)" transform="matrix(1,0,0,-1,1.251922,16.15)" vector-effect="non-scaling-stroke" /><path d="M8.422726,4.75 a0.4,0.4 0 1,1 0.8,0 a0.4,0.4 0 1,1 -0.8,0z" fill="rgb(255,255,255)" shaper:cutDepth="0.003" shaper:pathType="interior" stroke="rgb(0,0,0)" transform="matrix(1,0,0,-1,1.251922,16.15)" vector-effect="non-scaling-stroke" /><path d="M8.422726,1.2 a0.4,0.4 0 1,1 0.8,0 a0.4,0.4 0 1,1 -0.8,0z" fill="rgb(255,255,255)" shaper:cutDepth="0.003" shaper:pathType="interior" stroke="rgb(0,0,0)" transform="matrix(1,0,0,-1,1.251922,16.15)" vector-effect="non-scaling-stroke" /><path d="M11.972726,-2.35 a0.4,0.4 0 1,1 0.8,0 a0.4,0.4 0 1,1 -0.8,0z" fill="rgb(255,255,255)" shaper:cutDepth="0.003" shaper:pathType="interior" stroke="rgb(0,0,0)" transform="matrix(1,0,0,-1,1.251922,16.15)" vector-effect="non-scaling-stroke" /><path d="M4.872726,1.2 a0.4,0.4 0 1,1 0.8,0 a0.4,0.4 0 1,1 -0.8,0z" fill="rgb(255,255,255)" shaper:cutDepth="0.003" shaper:pathType="interior" stroke="rgb(0,0,0)" transform="matrix(1,0,0,-1,1.251922,16.15)" vector-effect="non-scaling-stroke" /><path d="M1.322726,4.75 a0.4,0.4 0 1,1 0.8,0 a0.4,0.4 0 1,1 -0.8,0z" fill="rgb(255,255,255)" shaper:cutDepth="0.003" shaper:pathType="interior" stroke="rgb(0,0,0)" transform="matrix(1,0,0,-1,1.251922,16.15)" vector-effect="non-scaling-stroke" /><path d="M8.422726,8.3 a0.4,0.4 0 1,1 0.8,0 a0.4,0.4 0 1,1 -0.8,0z" fill="rgb(255,255,255)" shaper:cutDepth="0.003" shaper:pathType="interior" stroke="rgb(0,0,0)" transform="matrix(1,0,0,-1,1.251922,16.15)" vector-effect="non-scaling-stroke" /><path d="M1.322726,8.3 a0.4,0.4 0 1,1 0.8,0 a0.4,0.4 0 1,1 -0.8,0z" fill="rgb(255,255,255)" shaper:cutDepth="0.003" shaper:pathType="interior" stroke="rgb(0,0,0)" transform="matrix(1,0,0,-1,1.251922,16.15)" vector-effect="non-scaling-stroke" /><path d="M1.322726,-2.35 a0.4,0.4 0 1,1 0.8,0 a0.4,0.4 0 1,1 -0.8,0z" fill="rgb(255,255,255)" shaper:cutDepth="0.003" shaper:pathType="interior" stroke="rgb(0,0,0)" transform="matrix(1,0,0,-1,1.251922,16.15)" vector-effect="non-scaling-stroke" /><path d="M11.972726,4.75 a0.4,0.4 0 1,1 0.8,0 a0.4,0.4 0 1,1 -0.8,0z" fill="rgb(255,255,255)" shaper:cutDepth="0.003" shaper:pathType="interior" stroke="rgb(0,0,0)" transform="matrix(1,0,0,-1,1.251922,16.15)" vector-effect="non-scaling-stroke" /><path d="M8.422726,-2.35 a0.4,0.4 0 1,1 0.8,0 a0.4,0.4 0 1,1 -0.8,0z" fill="rgb(255,255,255)" shaper:cutDepth="0.003" shaper:pathType="interior" stroke="rgb(0,0,0)" transform="matrix(1,0,0,-1,1.251922,16.15)" vector-effect="non-scaling-stroke" /><path d="M11.972726,1.2 a0.4,0.4 0 1,1 0.8,0 a0.4,0.4 0 1,1 -0.8,0z" fill="rgb(255,255,255)" shaper:cutDepth="0.003" shaper:pathType="interior" stroke="rgb(0,0,0)" transform="matrix(1,0,0,-1,1.251922,16.15)" vector-effect="non-scaling-stroke" /><path d="M4.872726,-2.35 a0.4,0.4 0 1,1 0.8,0 a0.4,0.4 0 1,1 -0.8,0z" fill="rgb(255,255,255)" shaper:cutDepth="0.003" shaper:pathType="interior" stroke="rgb(0,0,0)" transform="matrix(1,0,0,-1,1.251922,16.15)" vector-effect="non-scaling-stroke" /><path d="M4.872726,4.75 a0.4,0.4 0 1,1 0.8,0 a0.4,0.4 0 1,1 -0.8,0z" fill="rgb(255,255,255)" shaper:cutDepth="0.003" shaper:pathType="interior" stroke="rgb(0,0,0)" transform="matrix(1,0,0,-1,1.251922,16.15)" vector-effect="non-scaling-stroke" /><path d="M11.972726,8.3 a0.4,0.4 0 1,1 0.8,0 a0.4,0.4 0 1,1 -0.8,0z" fill="rgb(255,255,255)" shaper:cutDepth="0.003" shaper:pathType="interior" stroke="rgb(0,0,0)" transform="matrix(1,0,0,-1,1.251922,16.15)" vector-effect="non-scaling-stroke" /><path d="M10.8,10.55 L13.9027872,10.55 13.9027872,10.8 10.8,10.8 10.8,10.55z" fill="rgb(255,255,255)" shaper:cutDepth="0.003" shaper:pathType="interior" stroke="rgb(0,0,0)" transform="matrix(1,0,0,-1,1.251922,16.15)" vector-effect="non-scaling-stroke" /><path d="M3.1027872,-0.25 L3.1027872,0 0,0 0,-0.25 3.1027872,-0.25z" fill="rgb(255,255,255)" shaper:cutDepth="0.003" shaper:pathType="interior" stroke="rgb(0,0,0)" transform="matrix(1,0,0,-1,1.251922,16.15)" vector-effect="non-scaling-stroke" /><path d="M6.7027872,-0.25 L6.7027872,0 3.6,0 3.6,-0.25 6.7027872,-0.25z" fill="rgb(255,255,255)" shaper:cutDepth="0.003" shaper:pathType="interior" stroke="rgb(0,0,0)" transform="matrix(1,0,0,-1,1.251922,16.15)" vector-effect="non-scaling-stroke" /><path d="M10.3027872,-0.25 L10.3027872,0 7.2,0 7.2,-0.25 10.3027872,-0.25z" fill="rgb(255,255,255)" shaper:cutDepth="0.003" shaper:pathType="interior" stroke="rgb(0,0,0)" transform="matrix(1,0,0,-1,1.251922,16.15)" vector-effect="non-scaling-stroke" /><path d="M13.9027872,-0.25 L13.9027872,0 10.8,0 10.8,-0.25 13.9027872,-0.25z" fill="rgb(255,255,255)" shaper:cutDepth="0.003" shaper:pathType="interior" stroke="rgb(0,0,0)" transform="matrix(1,0,0,-1,1.251922,16.15)" vector-effect="non-scaling-stroke" /><path d="M0,3.35 L3.1027872,3.35 3.1027872,3.6 0,3.6 0,3.35z" fill="rgb(255,255,255)" shaper:cutDepth="0.003" shaper:pathType="interior" stroke="rgb(0,0,0)" transform="matrix(1,0,0,-1,1.251922,16.15)" vector-effect="non-scaling-stroke" /><path d="M3.6,3.35 L6.7027872,3.35 6.7027872,3.6 3.6,3.6 3.6,3.35z" fill="rgb(255,255,255)" shaper:cutDepth="0.003" shaper:pathType="interior" stroke="rgb(0,0,0)" transform="matrix(1,0,0,-1,1.251922,16.15)" vector-effect="non-scaling-stroke" /><path d="M7.2,3.35 L10.3027872,3.35 10.3027872,3.6 7.2,3.6 7.2,3.35z" fill="rgb(255,255,255)" shaper:cutDepth="0.003" shaper:pathType="interior" stroke="rgb(0,0,0)" transform="matrix(1,0,0,-1,1.251922,16.15)" vector-effect="non-scaling-stroke" /><path d="M10.8,3.35 L13.9027872,3.35 13.9027872,3.6 10.8,3.6 10.8,3.35z" fill="rgb(255,255,255)" shaper:cutDepth="0.003" shaper:pathType="interior" stroke="rgb(0,0,0)" transform="matrix(1,0,0,-1,1.251922,16.15)" vector-effect="non-scaling-stroke" /><path d="M0,6.95 L3.1027872,6.95 3.1027872,7.2 0,7.2 0,6.95z" fill="rgb(255,255,255)" shaper:cutDepth="0.003" shaper:pathType="interior" stroke="rgb(0,0,0)" transform="matrix(1,0,0,-1,1.251922,16.15)" vector-effect="non-scaling-stroke" /><path d="M3.6,6.95 L6.7027872,6.95 6.7027872,7.2 3.6,7.2 3.6,6.95z" fill="rgb(255,255,255)" shaper:cutDepth="0.003" shaper:pathType="interior" stroke="rgb(0,0,0)" transform="matrix(1,0,0,-1,1.251922,16.15)" vector-effect="non-scaling-stroke" /><path d="M7.2,6.95 L10.3027872,6.95 10.3027872,7.2 7.2,7.2 7.2,6.95z" fill="rgb(255,255,255)" shaper:cutDepth="0.003" shaper:pathType="interior" stroke="rgb(0,0,0)" transform="matrix(1,0,0,-1,1.251922,16.15)" vector-effect="non-scaling-stroke" /><path d="M10.8,6.95 L13.9027872,6.95 13.9027872,7.2 10.8,7.2 10.8,6.95z" fill="rgb(255,255,255)" shaper:cutDepth="0.003" shaper:pathType="interior" stroke="rgb(0,0,0)" transform="matrix(1,0,0,-1,1.251922,16.15)" vector-effect="non-scaling-stroke" /><path d="M0,10.55 L3.1027872,10.55 3.1027872,10.8 0,10.8 0,10.55z" fill="rgb(255,255,255)" shaper:cutDepth="0.003" shaper:pathType="interior" stroke="rgb(0,0,0)" transform="matrix(1,0,0,-1,1.251922,16.15)" vector-effect="non-scaling-stroke" /><path d="M3.6,10.55 L6.7027872,10.55 6.7027872,10.8 3.6,10.8 3.6,10.55z" fill="rgb(255,255,255)" shaper:cutDepth="0.003" shaper:pathType="interior" stroke="rgb(0,0,0)" transform="matrix(1,0,0,-1,1.251922,16.15)" vector-effect="non-scaling-stroke" /><path d="M7.2,10.55 L10.3027872,10.55 10.3027872,10.8 7.2,10.8 7.2,10.55z" fill="rgb(255,255,255)" shaper:cutDepth="0.003" shaper:pathType="interior" stroke="rgb(0,0,0)" transform="matrix(1,0,0,-1,1.251922,16.15)" vector-effect="non-scaling-stroke" /></svg>