<?xml version="1.0" encoding="utf-8"?>
<!-- Generator: Fusion 360, Shaper Origin Export Add-In, Version 1.5.0  -->
<svg enable-background="new 0 0 20 7.5" height="7.5cm" shaper:fusionaddin="version:1.5.0" version="1.1" viewBox="0 0 20 7.5" width="20cm" x="0cm" xml:space="preserve" xmlns="http://www.w3.org/2000/svg" xmlns:shaper="http://www.shapertools.com/namespaces/shaper" xmlns:xlink="http://www.w3.org/1999/xlink" y="0cm"><path d="M-19,-1.2 L-19,-1.5 -19.7,-1.5 -19.7,-0 -20,-0 -20,1.5 -19.7,1.5 -19.7,3 -20,3 -20,4.5 -19.7,4.5 -19.7,6 -19,6 -19,5.7 -18,5.7 -18,6 -17,6 -17,5.7 -16,5.7 -16,6 -15,6 -15,5.7 -14,5.7 -14,6 -13,6 -13,5.7 -12,5.7 -12,6 -11,6 -11,5.7 -10,5.7 -10,6 -9,6 -9,5.7 -8,5.7 -8,6 -7,6 -7,5.7 -6,5.7 -6,6 -5,6 -5,5.7 -4,5.7 -4,6 -3,6 -3,5.7 -2,5.7 -2,6 -1,6 -1,5.7 -0.3,5.7 -0.3,4.5 -0,4.5 -0,3 -0.3,3 -0.3,1.5 -0,1.5 0,0 -0.3,0 -0.3,-1.2 -1,-1.2 -1,-1.5 -2,-1.5 -2,-1.2 -3,-1.2 -3,-1.5 -4,-1.5 -4,-1.2 -5,-1.2 -5,-1.5 -6,-1.5 -6,-1.2 -7,-1.2 -7,-1.5 -8,-1.5 -8,-1.2 -9,-1.2 -9,-1.5 -10,-1.5 -10,-1.2 -11,-1.2 -11,-1.5 -12,-1.5 -12,-1.2 -13,-1.2 -13,-1.5 -14,-1.5 -14,-1.2 -15,-1.2 -15,-1.5 -16,-1.5 -16,-1.2 -17,-1.2 -17,-1.5 -18,-1.5 -18,-1.2 -19,-1.2z" fill="rgb(0,0,0)" shaper:cutDepth="0.003" shaper:pathType="exterior" transform="matrix(1,0,0,-1,20,6)" vector-effect="non-scaling-stroke" /></svg>