<?xml version="1.0" encoding="utf-8"?>
<!-- Generator: Fusion 360, Shaper Origin Export Add-In, Version 1.5.0  -->
<svg enable-background="new 0 0 20 4" height="4cm" shaper:fusionaddin="version:1.5.0" version="1.1" viewBox="0 0 20 4" width="20cm" x="0cm" xml:space="preserve" xmlns="http://www.w3.org/2000/svg" xmlns:shaper="http://www.shapertools.com/namespaces/shaper" xmlns:xlink="http://www.w3.org/1999/xlink" y="0cm"><path d="M-0.7,3.2 L-0.7,3.7 0,3.7 0,4 1,4 1,3.7 2,3.7 2,4 3,4 3,3.7 4,3.7 4,4 5,4 5,3.7 6,3.7 6,4 7,4 7,3.7 8,3.7 8,4 9,4 9,3.7 10,3.7 10,4 11,4 11,3.7 12,3.7 12,4 13,4 13,3.7 14,3.7 14,4 15,4 15,3.7 16,3.7 16,4 17,4 17,3.7 18,3.7 18,4 18.7,4 18.7,3.2 19,3.2 19,2.4 18.7,2.4 18.7,1.6 19,1.6 19,0.8 18.7,0.8 18.7,0 18,0 18,0.3 17,0.3 17,0 16,0 16,0.3 15,0.3 15,0 14,0 14,0.3 13,0.3 13,0 12,0 12,0.3 11,0.3 11,0 10,0 10,0.3 9,0.3 9,0 8,0 8,0.3 7,0.3 7,0 6,0 6,0.3 5,0.3 5,0 4,0 4,0.3 3,0.3 3,0 2,0 2,0.3 1,0.3 1,0 0,0 0,0.3 -0.7,0.3 -0.7,0.8 -1,0.8 -1,1.6 -0.7,1.6 -0.7,2.4 -1,2.4 -1,3.2 -0.7,3.2z" fill="rgb(0,0,0)" shaper:cutDepth="0.003" shaper:pathType="exterior" transform="matrix(1,0,0,-1,1,4)" vector-effect="non-scaling-stroke" /></svg>