<?xml version="1.0" encoding="utf-8"?>
<!-- Generator: Fusion 360, Shaper Origin Export Add-In, Version 1.5.0  -->
<svg enable-background="new 0 0 20 20" height="20cm" shaper:fusionaddin="version:1.5.0" version="1.1" viewBox="0 0 20 20" width="20cm" x="0cm" xml:space="preserve" xmlns="http://www.w3.org/2000/svg" xmlns:shaper="http://www.shapertools.com/namespaces/shaper" xmlns:xlink="http://www.w3.org/1999/xlink" y="0cm"><path d="M18.7532402,16.7490346 L18.4532402,16.7490346 18.4532402,15.7490346 18.7532402,15.7490346 18.7532402,14.7490346 18.4532402,14.7490346 18.4532402,13.7490346 18.7532402,13.7490346 18.7532402,12.7490346 18.4532402,12.7490346 18.4532402,11.7490346 18.7532402,11.7490346 18.7532402,10.7490346 18.4532402,10.7490346 18.4532402,9.7490346 18.7532402,9.7490346 18.7532402,8.7490346 18.4532402,8.7490346 18.4532402,7.7490346 18.7532402,7.7490346 18.7532402,6.7490346 18.4532402,6.7490346 18.4532402,5.7490346 18.7532402,5.7490346 18.7532402,4.7490346 18.4532402,4.7490346 18.4532402,3.7490346 18.7532402,3.7490346 18.7532402,2.7490346 18.4532402,2.7490346 18.4532402,1.7490346 18.7532402,1.7490346 18.7532402,0.7490346 18.4532402,0.7490346 18.4532402,-0.2509654 18.7532402,-0.2509654 18.7532402,-0.9509654 17.7532402,-0.9509654 17.7532402,-1.2509654 16.7532402,-1.2509654 16.7532402,-0.9509654 15.7532402,-0.9509654 15.7532402,-1.2509654 14.7532402,-1.2509654 14.7532402,-0.9509654 13.7532402,-0.9509654 13.7532402,-1.2509654 12.7532402,-1.2509654 12.7532402,-0.9509654 11.7532402,-0.9509654 11.7532402,-1.2509654 10.7532402,-1.2509654 10.7532402,-0.9509654 9.7532402,-0.9509654 9.7532402,-1.2509654 8.7532402,-1.2509654 8.7532402,-0.9509654 7.7532402,-0.9509654 7.7532402,-1.2509654 6.7532402,-1.2509654 6.7532402,-0.9509654 5.7532402,-0.9509654 5.7532402,-1.2509654 4.7532402,-1.2509654 4.7532402,-0.9509654 3.7532402,-0.9509654 3.7532402,-1.2509654 2.7532402,-1.2509654 2.7532402,-0.9509654 1.7532402,-0.9509654 1.7532402,-1.2509654 0.7532402,-1.2509654 0.7532402,-0.9509654 -0.2467598,-0.9509654 -0.2467598,-1.2509654 -1.2467598,-1.2509654 -1.2467598,-0.2509654 -0.9467598,-0.2509654 -0.9467598,0.7490346 -1.2467598,0.7490346 -1.2467598,1.7490346 -0.9467598,1.7490346 -0.9467598,2.7490346 -1.2467598,2.7490346 -1.2467598,3.7490346 -0.9467598,3.7490346 -0.9467598,4.7490346 -1.2467598,4.7490346 -1.2467598,5.7490346 -0.9467598,5.7490346 -0.9467598,6.7490346 -1.2467598,6.7490346 -1.2467598,7.7490346 -0.9467598,7.7490346 -0.9467598,8.7490346 -1.2467598,8.7490346 -1.2467598,9.7490346 -0.9467598,9.7490346 -0.9467598,10.7490346 -1.2467598,10.7490346 -1.2467598,11.7490346 -0.9467598,11.7490346 -0.9467598,12.7490346 -1.2467598,12.7490346 -1.2467598,13.7490346 -0.9467598,13.7490346 -0.9467598,14.7490346 -1.2467598,14.7490346 -1.2467598,15.7490346 -0.9467598,15.7490346 -0.9467598,16.7490346 -1.2467598,16.7490346 -1.2467598,17.7490346 -0.9467598,17.7490346 -0.9467598,18.4490346 -1.2467598,18.4490346 -1.2467598,18.7490346 -0.2467598,18.7490346 -0.2467598,18.4490346 0.7532402,18.4490346 0.7532402,18.7490346 1.7532402,18.7490346 1.7532402,18.4490346 2.7532402,18.4490346 2.7532402,18.7490346 3.7532402,18.7490346 3.7532402,18.4490346 4.7532402,18.4490346 4.7532402,18.7490346 5.7532402,18.7490346 5.7532402,18.4490346 6.7532402,18.4490346 6.7532402,18.7490346 7.7532402,18.7490346 7.7532402,18.4490346 8.7532402,18.4490346 8.7532402,18.7490346 9.7532402,18.7490346 9.7532402,18.4490346 10.7532402,18.4490346 10.7532402,18.7490346 11.7532402,18.7490346 11.7532402,18.4490346 12.7532402,18.4490346 12.7532402,18.7490346 13.7532402,18.7490346 13.7532402,18.4490346 14.7532402,18.4490346 14.7532402,18.7490346 15.7532402,18.7490346 15.7532402,18.4490346 16.7532402,18.4490346 16.7532402,18.7490346 17.7532402,18.7490346 17.7532402,18.4490346 18.4532402,18.4490346 18.4532402,17.7490346 18.7532402,17.7490346 18.7532402,16.7490346z" fill="rgb(0,0,0)" shaper:cutDepth="0.003" shaper:pathType="exterior" transform="matrix(1,0,0,-1,1.2467598,18.7490346)" vector-effect="non-scaling-stroke" /><path d="M10.3,10.3 L10.3,7.2 7.2,7.2 7.2,10.3 10.3,10.3z" fill="rgb(255,255,255)" shaper:cutDepth="0.003" shaper:pathType="interior" stroke="rgb(0,0,0)" transform="matrix(1,0,0,-1,1.2467598,18.7490346)" vector-effect="non-scaling-stroke" /><path d="M0,0 L0,3.1 3.1,3.1 3.1,0 0,0z" fill="rgb(255,255,255)" shaper:cutDepth="0.003" shaper:pathType="interior" stroke="rgb(0,0,0)" transform="matrix(1,0,0,-1,1.2467598,18.7490346)" vector-effect="non-scaling-stroke" /><path d="M13.9,0 L10.8,0 10.8,3.1 13.9,3.1 13.9,0z" fill="rgb(255,255,255)" shaper:cutDepth="0.003" shaper:pathType="interior" stroke="rgb(0,0,0)" transform="matrix(1,0,0,-1,1.2467598,18.7490346)" vector-effect="non-scaling-stroke" /><path d="M10.3,0 L7.2,0 7.2,3.1 10.3,3.1 10.3,0z" fill="rgb(255,255,255)" shaper:cutDepth="0.003" shaper:pathType="interior" stroke="rgb(0,0,0)" transform="matrix(1,0,0,-1,1.2467598,18.7490346)" vector-effect="non-scaling-stroke" /><path d="M6.7,0 L3.6,0 3.6,3.1 6.7,3.1 6.7,0z" fill="rgb(255,255,255)" shaper:cutDepth="0.003" shaper:pathType="interior" stroke="rgb(0,0,0)" transform="matrix(1,0,0,-1,1.2467598,18.7490346)" vector-effect="non-scaling-stroke" /><path d="M0,3.6 L0,6.7 3.1,6.7 3.1,3.6 0,3.6z" fill="rgb(255,255,255)" shaper:cutDepth="0.003" shaper:pathType="interior" stroke="rgb(0,0,0)" transform="matrix(1,0,0,-1,1.2467598,18.7490346)" vector-effect="non-scaling-stroke" /><path d="M0,7.2 L0,10.3 3.1,10.3 3.1,7.2 0,7.2z" fill="rgb(255,255,255)" shaper:cutDepth="0.003" shaper:pathType="interior" stroke="rgb(0,0,0)" transform="matrix(1,0,0,-1,1.2467598,18.7490346)" vector-effect="non-scaling-stroke" /><path d="M0,10.8 L0,13.9 3.1,13.9 3.1,10.8 0,10.8z" fill="rgb(255,255,255)" shaper:cutDepth="0.003" shaper:pathType="interior" stroke="rgb(0,0,0)" transform="matrix(1,0,0,-1,1.2467598,18.7490346)" vector-effect="non-scaling-stroke" /><path d="M13.9,13.9 L13.9,10.8 10.8,10.8 10.8,13.9 13.9,13.9z" fill="rgb(255,255,255)" shaper:cutDepth="0.003" shaper:pathType="interior" stroke="rgb(0,0,0)" transform="matrix(1,0,0,-1,1.2467598,18.7490346)" vector-effect="non-scaling-stroke" /><path d="M10.3,13.9 L10.3,10.8 7.2,10.8 7.2,13.9 10.3,13.9z" fill="rgb(255,255,255)" shaper:cutDepth="0.003" shaper:pathType="interior" stroke="rgb(0,0,0)" transform="matrix(1,0,0,-1,1.2467598,18.7490346)" vector-effect="non-scaling-stroke" /><path d="M13.9,6.7 L13.9,3.6 10.8,3.6 10.8,6.7 13.9,6.7z" fill="rgb(255,255,255)" shaper:cutDepth="0.003" shaper:pathType="interior" stroke="rgb(0,0,0)" transform="matrix(1,0,0,-1,1.2467598,18.7490346)" vector-effect="non-scaling-stroke" /><path d="M6.7,6.7 L6.7,3.6 3.6,3.6 3.6,6.7 6.7,6.7z" fill="rgb(255,255,255)" shaper:cutDepth="0.003" shaper:pathType="interior" stroke="rgb(0,0,0)" transform="matrix(1,0,0,-1,1.2467598,18.7490346)" vector-effect="non-scaling-stroke" /><path d="M6.7,13.9 L6.7,10.8 3.6,10.8 3.6,13.9 6.7,13.9z" fill="rgb(255,255,255)" shaper:cutDepth="0.003" shaper:pathType="interior" stroke="rgb(0,0,0)" transform="matrix(1,0,0,-1,1.2467598,18.7490346)" vector-effect="non-scaling-stroke" /><path d="M13.9,10.3 L13.9,7.2 10.8,7.2 10.8,10.3 13.9,10.3z" fill="rgb(255,255,255)" shaper:cutDepth="0.003" shaper:pathType="interior" stroke="rgb(0,0,0)" transform="matrix(1,0,0,-1,1.2467598,18.7490346)" vector-effect="non-scaling-stroke" /><path d="M6.7,10.3 L6.7,7.2 3.6,7.2 3.6,10.3 6.7,10.3z" fill="rgb(255,255,255)" shaper:cutDepth="0.003" shaper:pathType="interior" stroke="rgb(0,0,0)" transform="matrix(1,0,0,-1,1.2467598,18.7490346)" vector-effect="non-scaling-stroke" /><path d="M10.3,6.7 L10.3,3.6 7.2,3.6 7.2,6.7 10.3,6.7z" fill="rgb(255,255,255)" shaper:cutDepth="0.003" shaper:pathType="interior" stroke="rgb(0,0,0)" transform="matrix(1,0,0,-1,1.2467598,18.7490346)" vector-effect="non-scaling-stroke" /></svg>