<?xml version="1.0" encoding="utf-8"?>
<!-- Generator: Fusion 360, Shaper Origin Export Add-In, Version 1.5.0  -->
<svg enable-background="new 0 0 20 4" height="4cm" shaper:fusionaddin="version:1.5.0" version="1.1" viewBox="0 0 20 4" width="20cm" x="0cm" xml:space="preserve" xmlns="http://www.w3.org/2000/svg" xmlns:shaper="http://www.shapertools.com/namespaces/shaper" xmlns:xlink="http://www.w3.org/1999/xlink" y="0cm"><path d="M1.7,3.7 L1,3.7 1,4 0,4 0,3.7 -1,3.7 -1,4 -2,4 -2,3.7 -3,3.7 -3,4 -4,4 -4,3.7 -5,3.7 -5,4 -6,4 -6,3.7 -7,3.7 -7,4 -8,4 -8,3.7 -9,3.7 -9,4 -10,4 -10,3.7 -11,3.7 -11,4 -12,4 -12,3.7 -13,3.7 -13,4 -14,4 -14,3.7 -15,3.7 -15,4 -16,4 -16,3.7 -17,3.7 -17,4 -17.7,4 -17.7,3.2 -18,3.2 -18,2.4 -17.7,2.4 -17.7,1.6 -18,1.6 -18,0.8 -17.7,0.8 -17.7,0 -17,0 -17,0.3 -16,0.3 -16,0 -15,0 -15,0.3 -14,0.3 -14,0 -13,0 -13,0.3 -12,0.3 -12,0 -11,0 -11,0.3 -10,0.3 -10,0 -9,0 -9,0.3 -8,0.3 -8,0 -7,0 -7,0.3 -6,0.3 -6,0 -5,0 -5,0.3 -4,0.3 -4,0 -3,0 -3,0.3 -2,0.3 -2,0 -1,0 -1,0.3 0,0.3 0,0 1,0 1,0.3 1.7,0.3 1.7,0.8 2,0.8 2,1.6 1.7,1.6 1.7,2.4 2,2.4 2,3.2 1.7,3.2 1.7,3.7z" fill="rgb(0,0,0)" shaper:cutDepth="0.003" shaper:pathType="exterior" transform="matrix(1,0,0,-1,18,4)" vector-effect="non-scaling-stroke" /></svg>