<?xml version="1.0" standalone="no"?>
<!DOCTYPE svg PUBLIC "-//W3C//DTD SVG 20010904//EN"
 "http://www.w3.org/TR/2001/REC-SVG-20010904/DTD/svg10.dtd">
<svg version="1.0" xmlns="http://www.w3.org/2000/svg"
 width="1841.000000pt" height="264.000000pt" viewBox="0 0 1841.000000 264.000000"
 preserveAspectRatio="xMidYMid meet">

<g transform="translate(0.000000,264.000000) scale(0.100000,-0.100000)"
fill="#000000" stroke="none">
<path d="M17488 1420 l-3 -185 -37 -3 c-36 -3 -38 -2 -38 27 0 16 -4 32 -9 35
-5 3 -12 27 -16 53 -7 47 -69 190 -98 226 -17 21 -64 14 -85 -12 -27 -34 -75
-147 -93 -219 -12 -49 -27 -83 -40 -94 -34 -29 -118 -20 -141 15 -3 6 -9 30
-13 54 -3 24 -13 55 -21 71 -7 15 -14 32 -14 39 0 6 -16 43 -35 81 -37 72 -58
87 -102 71 -24 -9 -56 -60 -77 -124 -9 -24 -20 -53 -26 -62 -5 -10 -14 -44
-20 -75 -13 -65 -35 -88 -85 -88 -73 0 -94 24 -110 121 -4 24 -13 55 -21 69
-7 14 -25 50 -39 81 -14 32 -32 62 -40 69 -21 17 -61 16 -80 -3 -27 -28 -73
-124 -86 -182 -7 -31 -16 -58 -21 -61 -4 -3 -8 -18 -8 -34 0 -42 -37 -64 -95
-58 -55 7 -75 22 -75 57 0 15 -4 31 -9 37 -4 5 -14 32 -20 59 -6 28 -28 83
-48 123 -36 70 -37 72 -74 72 -43 0 -65 -23 -95 -101 -10 -24 -23 -53 -30 -64
-7 -11 -15 -40 -19 -65 -11 -75 -31 -108 -69 -116 -58 -10 -96 4 -112 42 -8
18 -14 44 -14 56 0 13 -7 37 -16 53 -9 17 -22 49 -30 73 -33 95 -74 138 -121
126 -19 -5 -93 -130 -93 -156 0 -7 -7 -25 -14 -40 -8 -16 -18 -48 -21 -72 -10
-64 -24 -78 -81 -83 -70 -7 -89 12 -114 113 -11 44 -37 114 -58 155 -34 67
-41 74 -70 77 -19 2 -41 -3 -49 -10 -33 -26 -96 -182 -108 -263 0 -5 -6 -22
-13 -37 -13 -30 -60 -45 -111 -33 -38 8 -48 20 -56 70 -4 22 -15 59 -26 82
-10 24 -19 47 -19 52 0 22 -63 127 -83 138 -31 18 -43 16 -66 -8 -23 -25 -71
-122 -71 -144 0 -8 -4 -15 -9 -15 -5 0 -14 -30 -21 -67 -16 -84 -42 -113 -100
-113 -58 0 -82 28 -99 113 -7 37 -17 67 -22 67 -5 0 -9 8 -9 18 -1 9 -16 46
-34 82 -33 65 -33 65 -76 65 -42 0 -43 -1 -74 -60 -18 -33 -38 -80 -45 -105
-7 -25 -17 -54 -21 -65 -5 -11 -11 -36 -14 -56 -7 -39 -35 -59 -84 -59 -63 0
-84 21 -99 95 -10 54 -26 99 -53 154 -17 33 -30 64 -30 69 0 15 -61 41 -79 34
-9 -3 -22 -13 -29 -21 -27 -34 -75 -146 -93 -219 -12 -49 -27 -83 -40 -94 -26
-22 -80 -23 -118 -3 -23 11 -29 22 -34 62 -3 26 -13 62 -21 78 -9 17 -16 37
-16 45 0 8 -9 30 -20 48 -11 17 -16 32 -12 32 4 0 2 4 -3 8 -6 4 -16 19 -22
33 -12 29 -47 40 -81 28 -20 -8 -32 -28 -98 -174 -8 -16 -18 -55 -24 -85 -14
-79 -57 -105 -136 -84 -24 6 -49 57 -59 119 -7 45 -79 197 -101 216 -20 16
-60 14 -79 -4 -27 -28 -73 -124 -86 -182 -7 -31 -16 -58 -21 -61 -4 -3 -8 -18
-8 -34 0 -42 -37 -64 -95 -58 -57 7 -75 22 -75 64 0 18 -4 35 -9 38 -5 3 -14
27 -20 53 -7 27 -28 81 -48 121 -36 70 -37 72 -74 72 -43 0 -65 -23 -95 -101
-10 -24 -23 -53 -30 -64 -7 -11 -15 -40 -19 -65 -11 -75 -31 -108 -69 -116
-57 -10 -92 3 -110 41 -9 18 -16 43 -16 55 0 12 -6 36 -14 53 -7 18 -22 52
-32 77 -42 103 -75 136 -121 124 -23 -6 -88 -124 -98 -178 -4 -20 -11 -36 -15
-36 -5 0 -11 -23 -15 -51 -9 -66 -32 -89 -88 -89 -64 0 -81 18 -101 102 -10
40 -36 110 -58 156 -45 95 -72 115 -115 86 -30 -19 -98 -161 -108 -224 -11
-76 -31 -108 -70 -116 -37 -7 -82 1 -102 18 -7 5 -15 31 -19 56 -3 26 -10 52
-14 57 -4 6 -13 28 -20 49 -7 22 -27 67 -45 100 -31 60 -57 78 -95 69 -20 -5
-52 -56 -75 -118 -11 -27 -22 -52 -26 -55 -4 -3 -13 -33 -19 -68 -17 -87 -39
-112 -96 -112 -61 0 -86 28 -103 114 -7 36 -17 66 -22 66 -5 0 -9 8 -9 18 -1
9 -16 46 -34 82 -33 65 -33 65 -76 65 -42 0 -44 -1 -72 -55 -32 -61 -72 -174
-82 -233 -8 -41 -32 -57 -87 -57 -53 0 -86 31 -94 90 -4 30 -27 105 -38 125
-6 11 -12 22 -13 25 -11 41 -44 92 -68 104 -46 23 -79 0 -111 -79 -10 -22 -23
-51 -30 -65 -7 -14 -19 -54 -26 -90 -15 -78 -42 -110 -93 -110 -63 0 -84 17
-96 77 -7 29 -18 66 -26 81 -8 15 -14 34 -14 42 0 8 -9 30 -20 48 -11 17 -16
32 -12 32 4 0 2 4 -3 8 -6 4 -16 19 -22 33 -12 28 -47 40 -80 28 -24 -9 -56
-60 -78 -125 -8 -25 -20 -55 -25 -65 -6 -10 -15 -42 -20 -71 -12 -62 -37 -88
-87 -88 -64 0 -94 33 -107 119 -7 45 -54 154 -88 203 -22 32 -69 38 -95 13
-23 -23 -58 -97 -77 -162 -10 -32 -21 -66 -27 -75 -5 -10 -9 -29 -9 -43 0 -37
-40 -59 -97 -52 -52 6 -73 25 -73 68 0 15 -4 30 -9 33 -5 3 -14 27 -20 53 -7
27 -28 81 -47 121 -35 71 -36 72 -75 72 -36 0 -42 -4 -69 -47 -17 -26 -30 -52
-30 -57 0 -6 -6 -23 -14 -37 -7 -15 -19 -51 -26 -80 -26 -111 -41 -129 -105
-129 -50 0 -83 34 -95 97 -5 29 -14 60 -19 70 -5 10 -17 38 -27 63 -42 102
-75 136 -121 124 -22 -6 -73 -96 -93 -166 -8 -27 -18 -48 -21 -48 -4 0 -11
-25 -14 -55 -5 -40 -13 -60 -28 -70 -40 -28 -127 -14 -142 22 -4 10 -15 50
-25 88 -11 39 -36 104 -57 145 -36 69 -41 75 -73 78 -26 3 -38 -2 -52 -20 -34
-42 -66 -114 -84 -184 -27 -111 -39 -132 -79 -140 -37 -7 -82 1 -102 18 -7 5
-15 30 -19 55 -4 25 -13 58 -20 72 -8 14 -14 32 -14 38 0 24 -71 148 -91 159
-47 26 -86 -9 -124 -111 -11 -27 -22 -52 -26 -55 -4 -3 -13 -34 -19 -70 -16
-84 -39 -110 -97 -110 -35 0 -49 6 -68 26 -14 15 -25 35 -25 45 0 30 -23 109
-32 109 -4 0 -8 8 -8 18 -1 9 -16 46 -34 82 -32 62 -34 65 -73 68 -40 3 -41 2
-73 -55 -28 -53 -65 -155 -87 -243 -7 -29 -15 -36 -45 -44 -51 -13 -98 3 -118
39 -10 17 -16 33 -14 36 4 7 -30 122 -42 140 -5 8 -9 16 -10 19 -2 17 -42 87
-54 97 -8 7 -28 12 -45 13 -33 0 -66 -38 -89 -102 -6 -18 -17 -42 -23 -53 -6
-11 -17 -49 -24 -85 -16 -81 -42 -110 -99 -110 -52 0 -84 30 -93 87 -4 22 -14
53 -22 69 -8 16 -15 36 -15 44 0 8 -9 30 -20 48 -11 17 -16 32 -12 32 4 0 2 4
-3 8 -6 4 -16 19 -22 33 -11 26 -41 38 -75 31 -21 -4 -62 -67 -82 -127 -9 -26
-21 -56 -26 -66 -6 -10 -15 -42 -20 -71 -12 -62 -37 -88 -87 -88 -64 0 -94 33
-107 120 -4 25 -28 86 -53 137 -45 92 -46 93 -82 93 -30 0 -40 -6 -57 -33 -42
-65 -51 -83 -68 -142 -9 -33 -21 -68 -27 -77 -5 -10 -9 -29 -9 -43 0 -37 -40
-59 -97 -52 -52 6 -73 25 -73 68 0 15 -4 30 -9 33 -5 3 -14 27 -20 53 -7 27
-28 80 -47 119 -35 73 -56 90 -95 76 -18 -7 -69 -69 -69 -84 0 -5 -9 -27 -19
-48 -11 -22 -25 -64 -31 -92 -26 -110 -41 -128 -105 -128 -51 0 -83 34 -95
100 -6 30 -15 59 -20 64 -6 6 -10 16 -10 23 0 8 -16 47 -36 88 -34 67 -40 73
-71 77 -18 2 -37 2 -42 -1 -15 -10 -67 -114 -82 -164 -7 -26 -16 -47 -20 -47
-4 0 -10 -23 -14 -51 -4 -29 -15 -59 -26 -70 -33 -33 -128 -21 -144 18 -4 10
-15 50 -25 88 -11 39 -36 104 -57 145 -36 69 -41 75 -73 78 -26 3 -38 -2 -52
-20 -29 -36 -74 -137 -88 -198 -22 -94 -36 -118 -75 -126 -37 -7 -82 1 -102
18 -7 5 -15 30 -19 55 -4 25 -13 58 -20 72 -8 14 -14 31 -14 36 0 6 -17 45
-37 87 -38 77 -38 77 -78 78 -36 0 -42 -4 -67 -43 -14 -23 -32 -61 -39 -85 -7
-23 -15 -42 -19 -42 -4 0 -13 -30 -20 -67 -16 -87 -38 -113 -97 -113 -59 0
-86 29 -101 112 -6 35 -16 64 -22 66 -5 2 -10 11 -10 20 -1 10 -16 46 -34 82
-32 62 -34 65 -73 68 -40 3 -41 2 -72 -55 -34 -62 -74 -173 -85 -236 -8 -41
-32 -57 -87 -57 -54 0 -83 29 -96 95 -10 52 -26 99 -53 154 -17 33 -30 63 -30
66 0 17 -32 35 -62 35 -26 0 -38 -7 -57 -35 -13 -19 -28 -49 -35 -67 -6 -18
-17 -42 -23 -53 -6 -11 -17 -49 -24 -85 -15 -78 -42 -110 -93 -110 -64 0 -84
16 -96 79 -6 31 -17 70 -24 86 -34 75 -48 110 -46 114 1 2 -2 7 -7 10 -5 3
-14 18 -20 32 -12 27 -46 40 -75 30 -24 -9 -63 -71 -83 -132 -10 -30 -22 -59
-26 -65 -5 -6 -13 -35 -19 -65 -12 -65 -37 -89 -92 -89 -51 0 -98 43 -98 90 0
18 -6 46 -14 63 -7 18 -21 52 -32 77 -10 25 -23 52 -30 60 -6 8 -15 25 -18 37
-6 19 -15 23 -44 23 -31 0 -41 -6 -59 -33 -13 -18 -23 -37 -23 -41 0 -5 -11
-30 -24 -57 -14 -27 -30 -77 -37 -111 -16 -81 -42 -108 -104 -108 -45 0 -83
23 -87 53 -2 20 -5 31 -11 47 -3 8 -8 27 -11 42 -3 15 -11 40 -17 55 -6 15
-11 30 -12 33 0 3 -5 10 -9 15 -5 6 -19 30 -31 55 -20 40 -26 45 -59 48 -35 3
-39 0 -55 -32 -9 -20 -20 -36 -24 -36 -3 0 -12 -20 -18 -45 -6 -25 -16 -45
-22 -45 -5 0 -7 -5 -4 -10 4 -6 2 -16 -3 -23 -5 -7 -17 -47 -26 -91 -13 -63
-16 -146 -16 -437 l0 -359 9006 0 c8208 0 9006 1 9000 16 -3 9 -6 257 -6 552
l0 537 -375 0 -375 0 -2 -185z"/>
</g>
</svg>
