<?xml version="1.0" encoding="utf-8"?>
<!-- Generator: Adobe Illustrator 16.0.3, SVG Export Plug-In . SVG Version: 6.00 Build 0)  -->
<!DOCTYPE svg PUBLIC "-//W3C//DTD SVG 1.1//EN" "http://www.w3.org/Graphics/SVG/1.1/DTD/svg11.dtd">
<svg version="1.1" id="Layer_1" xmlns:shaper="http://www.shapertools.com/namespaces/shaper" shaper:fusionaddin="version:1.5.0"
	 xmlns="http://www.w3.org/2000/svg" xmlns:xlink="http://www.w3.org/1999/xlink" x="0px" y="0px" width="85.039px"
	 height="85.039px" viewBox="0 0 85.039 85.039" enable-background="new 0 0 85.039 85.039" xml:space="preserve">
<path vector-effect="non-scaling-stroke" shaper:cutDepth="0.002" shaper:pathType="exterior" display="none" d="M5.47,5.485h8.504
	V0h14.174v5.484h28.346V0h14.174v5.484h8.504v8.504h5.868v15.591h-5.868v25.512h5.868v15.591h-5.868v8.504h-8.504v5.854H56.493
	v-5.854H28.148v5.854H13.974v-5.854H5.47v-8.504H0V55.091h5.47V29.579H0V13.989h5.47V5.485z"/>
<path vector-effect="non-scaling-stroke" shaper:cutDepth="0.0016102" shaper:pathType="hogging" display="none" fill="#B4B4B4" d="
	M63.912,67.497v-9.029h-4.216l-0.938,0.071h-7.042v8.958H63.912z"/>
<path vector-effect="non-scaling-stroke" shaper:cutDepth="0.002" shaper:pathType="interior" display="none" fill="#FFFFFF" stroke="#000000" d="
	M22.885,37.883c-0.001,3.131,2.537,5.67,5.668,5.671c3.131,0,5.67-2.537,5.67-5.668c0-0.001,0-0.002,0-0.003
	c0.001-3.131-2.537-5.67-5.668-5.67c-3.131-0.001-5.67,2.537-5.67,5.668C22.885,37.882,22.885,37.882,22.885,37.883z"/>
<path vector-effect="non-scaling-stroke" shaper:cutDepth="0.002" shaper:pathType="interior" display="none" fill="#FFFFFF" stroke="#000000" d="
	M39.831,42.757c1.46,0.867,3.232,1.035,4.828,0.456l0,0l0.121-0.34l0.07-0.354l0,0l0.019,0.31l-0.019,0.311
	c2.903-1.173,4.306-4.478,3.133-7.38c-1.173-2.903-4.477-4.306-7.38-3.133c-2.903,1.172-4.306,4.477-3.133,7.38
	c0.456,1.129,1.264,2.081,2.303,2.716l0,0l0.017-0.203l0,0L39.831,42.757z"/>
<path vector-effect="non-scaling-stroke" shaper:cutDepth="0.002" shaper:pathType="interior" display="none" fill="#FFFFFF" stroke="#000000" d="
	M51.231,37.883c-0.001,3.131,2.536,5.671,5.667,5.672c3.131,0.002,5.671-2.536,5.672-5.667c0-0.001,0-0.003,0-0.005
	c0.001-3.131-2.536-5.67-5.667-5.672c-3.131-0.001-5.67,2.536-5.672,5.667C51.231,37.88,51.231,37.882,51.231,37.883z"/>
<path vector-effect="non-scaling-stroke" shaper:cutDepth="0.002" shaper:pathType="exterior" stroke="#FF0000" stroke-width="1.000000e-004" stroke-miterlimit="10" d="
	M79.571,79.555h-8.504v5.484h-14.74v-5.484H29.113v5.484H14.372v-5.484H5.868v-8.504H0V56.168h5.868V29.239H0V14.358h5.868V5.854
	h8.504V0.001h14.741v5.854h27.213V0.001h14.74v5.854h8.504v8.504h5.469v14.881h-5.469v26.929h5.469v14.883h-5.469V79.555z"/>
<path vector-effect="non-scaling-stroke" shaper:cutDepth="0.0016102" shaper:pathType="hogging" fill="#FFFFFF" stroke="#FF0000" stroke-width="1.000000e-004" stroke-miterlimit="10" d="
	M62.614,75.502v-5.244H58.84L58,70.299h-6.301v5.203H62.614z"/>
<path fill="#FFFFFF" stroke="#FF0000" stroke-width="1.000000e-004" d="M30.789,59.496c0,4.051-3.283,7.334-7.333,7.334l0,0
	c-4.05,0-7.333-3.283-7.333-7.334v-36c0-4.05,3.283-7.333,7.333-7.333l0,0c4.05,0,7.333,3.283,7.333,7.333V59.496z"/>
<path fill="#FFFFFF" stroke="#FF0000" stroke-width="1.000000e-004" d="M72.123,26.163c0,3.682-2.985,6.667-6.667,6.667H44.123
	c-3.683,0-6.667-2.985-6.667-6.667l0,0c0-3.682,2.984-6.667,6.667-6.667h21.333C69.138,19.496,72.123,22.481,72.123,26.163
	L72.123,26.163z"/>
<path fill="#FFFFFF" stroke="#FF0000" stroke-width="1.000000e-004" d="M72.123,52.83c0,3.682-2.985,6.666-6.667,6.666H44.123
	c-3.683,0-6.667-2.984-6.667-6.666l0,0c0-3.683,2.984-6.668,6.667-6.668h21.333C69.138,46.162,72.123,49.148,72.123,52.83
	L72.123,52.83z"/>
</svg>
