<?xml version="1.0" encoding="utf-8"?>
<!-- Generator: Fusion 360, Shaper Origin Export Add-In, Version 1.5.0  -->
<svg enable-background="new 0 0 3 3" height="3cm" shaper:fusionaddin="version:1.5.0" version="1.1" viewBox="0 0 3 3" width="3cm" x="0cm" xml:space="preserve" xmlns="http://www.w3.org/2000/svg" xmlns:shaper="http://www.shapertools.com/namespaces/shaper" xmlns:xlink="http://www.w3.org/1999/xlink" y="0cm"><path d="M-0.8,2.6 L-0.5,2.6 -0.5,2.7934877 -0,2.7934877 -0,2.6 1,2.6 1,2.7934877 1.5,2.7934877 1.5,2.6 1.8,2.6 1.8,2.3 2.007025,2.3 2.007025,1.75 1.8,1.75 1.8,0.85 2.007025,0.85 2.007025,0.3 1.8,0.3 1.8,-0 1.5,-0 1.5,-0.2065123 1,-0.2065123 1,-0 -0,-0 -0,-0.2065123 -0.5,-0.2065123 -0.5,0 -0.8,-0 -0.8,0.3 -0.992975,0.3 -0.992975,0.85 -0.8,0.85 -0.8,1.75 -0.992975,1.75 -0.992975,2.3 -0.8,2.3 -0.8,2.6z" fill="rgb(0,0,0)" shaper:cutDepth="0.002" shaper:pathType="exterior" transform="matrix(1,0,0,-1,0.992975,2.7934877)" vector-effect="non-scaling-stroke" /><path d="M1.2617059,0.4123306 L1.2617059,0.73087 1.1129762,0.73087 1.0799086,0.7283443 0.8314895,0.7283443 0.8314895,0.4123306 1.2617059,0.4123306z" fill="rgb(180,180,180)" fill-rule="nonzero" shaper:cutDepth="0.0016102" shaper:pathType="hogging" transform="matrix(1,0,0,-1,0.992975,2.7934877)" vector-effect="non-scaling-stroke" /><path d="M-0.1856556,1.4570513 a0.2,0.2 0 1,1 0.4,0 a0.2,0.2 0 1,1 -0.4,0z" fill="rgb(255,255,255)" shaper:cutDepth="0.002" shaper:pathType="interior" stroke="rgb(0,0,0)" transform="matrix(1,0,0,-1,0.992975,2.7934877)" vector-effect="non-scaling-stroke" /><path d="M0.4121994,1.2851025 A0.2,0.2 239.2878644 0,1 0.5825259,1.269032 L0.5825259,1.269032 0.5867837,1.2810129 0.58925,1.2934877 0.58925,1.2934877 0.5899219,1.2825503 0.5892586,1.2716117 A0.2,0.2 291.9977896 1,1 0.4101581,1.2863316 L0.4101581,1.2863316 0.41075,1.2934877 0.41075,1.2934877 0.4121994,1.2851025z" fill="rgb(255,255,255)" shaper:cutDepth="0.002" shaper:pathType="interior" stroke="rgb(0,0,0)" transform="matrix(1,0,0,-1,0.992975,2.7934877)" vector-effect="non-scaling-stroke" /><path d="M0.8143444,1.4570513 a0.2,0.2 0 1,1 0.4,0 a0.2,0.2 0 1,1 -0.4,0z" fill="rgb(255,255,255)" shaper:cutDepth="0.002" shaper:pathType="interior" stroke="rgb(0,0,0)" transform="matrix(1,0,0,-1,0.992975,2.7934877)" vector-effect="non-scaling-stroke" /></svg>