<?xml version="1.0" encoding="utf-8"?>
<!-- Generator: Fusion 360, Shaper Origin Export Add-In, Version 1.5.0  -->
<svg enable-background="new 0 0 3 3" height="3cm" shaper:fusionaddin="version:1.5.0" version="1.1" viewBox="0 0 3 3" width="3cm" x="0cm" xml:space="preserve" xmlns="http://www.w3.org/2000/svg" xmlns:shaper="http://www.shapertools.com/namespaces/shaper" xmlns:xlink="http://www.w3.org/1999/xlink" y="0cm"><path d="M1.8,0.3 L2.007025,0.3 2.007025,0.85 1.8,0.85 1.8,1.75 2.007025,1.75 2.007025,2.3 1.8,2.3 1.8,2.6 1.5,2.6 1.5,2.8065123 1,2.8065123 1,2.6 0,2.6 0,2.8065123 -0.5,2.8065123 -0.5,2.6 -0.8,2.6 -0.8,2.3 -0.992975,2.3 -0.992975,1.75 -0.8,1.75 -0.8,0.85 -0.992975,0.85 -0.992975,0.3 -0.8,0.3 -0.8,-0 -0.5,-0 -0.5,-0.1934877 0,-0.1934877 0,-0 1,-0 1,-0.1934877 1.5,-0.1934877 1.5,-0 1.8,-0 1.8,0.3z" fill="rgb(0,0,0)" shaper:cutDepth="0.002" shaper:pathType="exterior" transform="matrix(1,0,0,-1,0.992975,2.8065123)" vector-effect="non-scaling-stroke" /><path d="M0.2557012,0.3069639 a0.25,0.25 0 1,1 0.5,0 a0.25,0.25 0 1,1 -0.5,0z" fill="rgb(255,255,255)" shaper:cutDepth="0.002" shaper:pathType="interior" stroke="rgb(0,0,0)" transform="matrix(1,0,0,-1,0.992975,2.8065123)" vector-effect="non-scaling-stroke" /><path d="M1.2557012,1.3069639 a0.25,0.25 0 1,1 0.5,0 a0.25,0.25 0 1,1 -0.5,0z" fill="rgb(255,255,255)" shaper:cutDepth="0.002" shaper:pathType="interior" stroke="rgb(0,0,0)" transform="matrix(1,0,0,-1,0.992975,2.8065123)" vector-effect="non-scaling-stroke" /><path d="M-0.7442988,1.3069639 a0.25,0.25 0 1,1 0.5,0 a0.25,0.25 0 1,1 -0.5,0z" fill="rgb(255,255,255)" shaper:cutDepth="0.002" shaper:pathType="interior" stroke="rgb(0,0,0)" transform="matrix(1,0,0,-1,0.992975,2.8065123)" vector-effect="non-scaling-stroke" /></svg>