<?xml version="1.0" encoding="utf-8"?>
<!-- Generator: Fusion 360, Shaper Origin Export Add-In, Version 1.5.0  -->
<svg enable-background="new 0 0 3 3" height="3cm" shaper:fusionaddin="version:1.5.0" version="1.1" viewBox="0 0 3 3" width="3cm" x="0cm" xml:space="preserve" xmlns="http://www.w3.org/2000/svg" xmlns:shaper="http://www.shapertools.com/namespaces/shaper" xmlns:xlink="http://www.w3.org/1999/xlink" y="0cm"><path d="M1.5,0.207025 L1,0.207025 1,0 0,-0 -0,0.207025 -0.5,0.207025 -0.5,-0 -0.8,-0 -0.8,0.507025 -1.0065123,0.507025 -1.0065123,1.032025 -0.8,1.032025 -0.8,1.982025 -1.0065123,1.982025 -1.0065123,2.507025 -0.8,2.507025 -0.8,3 -0.5,3 -0.5,2.807025 -0,2.807025 -0,3 1,3 1,2.807025 1.5,2.807025 1.5,3 1.8,3 1.8,2.507025 1.9934877,2.507025 1.9934877,1.982025 1.8,1.982025 1.8,1.032025 1.9934877,1.032025 1.9934877,0.507025 1.8,0.507025 1.8,-0 1.5,-0 1.5,0.207025z" fill="rgb(0,0,0)" shaper:cutDepth="0.002" shaper:pathType="exterior" transform="matrix(1,0,0,-1,1.0065123,3)" vector-effect="non-scaling-stroke" /></svg>