<?xml version="1.0" encoding="utf-8"?>
<!-- Generator: Fusion 360, Shaper Origin Export Add-In, Version 1.5.0  -->
<svg enable-background="new 0 0 3 3" height="3cm" shaper:fusionaddin="version:1.5.0" version="1.1" viewBox="0 0 3 3" width="3cm" x="0cm" xml:space="preserve" xmlns="http://www.w3.org/2000/svg" xmlns:shaper="http://www.shapertools.com/namespaces/shaper" xmlns:xlink="http://www.w3.org/1999/xlink" y="0cm"><path d="M1.775,-0 L1.475,-0 1.475,-0.1934877 0.95,-0.1934877 0.95,-0 0,0 -0,-0.1934877 -0.525,-0.1934877 -0.525,0 -0.825,0 -0.825,0.3 -1.032025,0.3 -1.032025,0.825 -0.825,0.825 -0.825,1.775 -1.032025,1.775 -1.032025,2.3 -0.825,2.3 -0.825,2.6 -0.525,2.6 -0.525,2.8065123 -0,2.8065123 -0,2.6 0.95,2.6 0.95,2.8065123 1.475,2.8065123 1.475,2.6 1.775,2.6 1.775,2.3 1.967975,2.3 1.967975,1.775 1.775,1.775 1.775,0.825 1.967975,0.825 1.967975,0.3 1.775,0.3 1.775,-0z" fill="rgb(0,0,0)" shaper:cutDepth="0.002" shaper:pathType="exterior" transform="matrix(1,0,0,-1,1.032025,2.8065123)" vector-effect="non-scaling-stroke" /><path d="M0.5352219,1.3609057 A0.08115,0.08115 42.0888346 0,1 0.4147781,1.3609057 L0.4147781,1.3609057 0.4062886,1.3525982 0.3990839,1.3431454 0.3932951,1.3327719 0.3890034,1.3216837 0.3862748,1.310142 0.3851207,1.2983342 0.3855401,1.2864424 0.3875003,1.2747342 0.390947,1.2633683 0.3958177,1.2524974 0.4019916,1.2423421 0.4093668,1.2330213 0.4178446,1.2246381 0.427249,1.2173436 0.4374415,1.2112157 0.448308,1.2063064 A0.1037,0.1037 255.0844025 0,1 0.501692,1.2063064 L0.501692,1.2063064 0.5125629,1.2112181 0.5227797,1.2173635 0.5322025,1.2246795 0.5406714,1.233064 0.5480618,1.2424192 0.5542256,1.2525795 0.5590749,1.2634266 0.562521,1.2748263 0.5644698,1.286539 0.5648773,1.298401 0.5637088,1.3102392 0.5609677,1.3217773 0.5566764,1.3328327 0.5508795,1.3432014 0.5436966,1.3526153 0.5352219,1.3609057z" fill="rgb(149,149,149)" fill-rule="nonzero" shaper:cutDepth="0.001" shaper:pathType="hogging" transform="matrix(1,0,0,-1,1.032025,2.8065123)" vector-effect="non-scaling-stroke" /></svg>