<?xml version="1.0" encoding="utf-8"?>
<!-- Generator: Fusion 360, Shaper Origin Export Add-In, Version 1.5.0  -->
<svg enable-background="new 0 0 3 3" height="3cm" shaper:fusionaddin="version:1.5.0" version="1.1" viewBox="0 0 3 3" width="3cm" x="0cm" xml:space="preserve" xmlns="http://www.w3.org/2000/svg" xmlns:shaper="http://www.shapertools.com/namespaces/shaper" xmlns:xlink="http://www.w3.org/1999/xlink" y="0cm"><path d="M1,0.2065123 L1,0 -0,0 -0,0.2065123 -0.5,0.2065123 -0.5,0 -0.992975,0 -0.992975,0.5065123 -0.8,0.5065123 -0.8,1.0065123 -0.992975,1.0065123 -0.992975,2.0065123 -0.8,2.0065123 -0.8,2.5065123 -0.992975,2.5065123 -0.992975,3 -0.5,3 -0.5,2.8065123 -0,2.8065123 -0,3 1,3 1,2.8065123 1.5,2.8065123 1.5,3 2.007025,3 2.007025,2.5065123 1.8,2.5065123 1.8,2.0065123 2.007025,2.0065123 2.007025,1.0065123 1.8,1.0065123 1.8,0.5065123 2.007025,0.5065123 2.007025,0 1.5,0 1.5,0.2065123 1,0.2065123z" fill="rgb(0,0,0)" shaper:cutDepth="0.002" shaper:pathType="exterior" transform="matrix(1,0,0,-1,0.992975,3)" vector-effect="non-scaling-stroke" /></svg>