<?xml version="1.0" encoding="utf-8"?>
<!-- Generator: Fusion 360, Shaper Origin Export Add-In, Version 1.5.0  -->
<svg enable-background="new 0 0 1.6757303 1.6724998" height="1.6724998cm" shaper:fusionaddin="version:1.5.0" version="1.1" viewBox="0 0 1.6757303 1.6724998" width="1.6757303cm" x="0cm" xml:space="preserve" xmlns="http://www.w3.org/2000/svg" xmlns:shaper="http://www.shapertools.com/namespaces/shaper" xmlns:xlink="http://www.w3.org/1999/xlink" y="0cm"><path d="M0.0369896,-0.3874471 L0.0369896,-0.3874471 0.0431524,-0.3762647 0.0487082,-0.3653964 0.0536807,-0.3548653 0.0580938,-0.3446943 0.0619712,-0.3349066 0.0653369,-0.3255253 0.0682146,-0.3165733 0.0706281,-0.3080738 0.0726013,-0.3000498 0.074158,-0.2925243 0.0753054,-0.2856321 0.0760356,-0.2798013 0.0764332,-0.2750674 0.0765905,-0.2714256 0.0765996,-0.2688711 0.0765527,-0.2673992 0.1347406,-0.2600484 0.1347406,-0.2600484 0.1360604,-0.2653127 0.1379249,-0.2710382 0.143167,-0.2836317 0.1502235,-0.2973474 0.1588513,-0.3117034 0.1687331,-0.3261281 0.1794795,-0.3401178 0.1909253,-0.3535918 0.2029155,-0.3664858 A0.0192992,0.0192992 193.7298089 1,1 0.2402988,-0.3568874 L0.2402988,-0.3568874 0.243487,-0.3445237 0.2461654,-0.3326152 0.2483627,-0.3211783 0.2501077,-0.3102294 0.2514292,-0.2997849 0.2523561,-0.2898613 0.2529171,-0.2804749 0.2531411,-0.2716422 0.2530568,-0.2633795 0.2526931,-0.2557034 0.2520904,-0.2487424 0.2513476,-0.2429132 0.2505555,-0.2382291 0.2498021,-0.2346626 0.2491757,-0.2321861 0.2487642,-0.2307721 0.303296,-0.2091814 0.303296,-0.2091814 0.3058834,-0.2139522 0.3091133,-0.2190341 0.3173225,-0.2299283 0.3275683,-0.2414582 0.3394952,-0.2532176 0.3526538,-0.2647316 0.3665418,-0.2756093 0.3809788,-0.2858135 0.3957989,-0.2953206 A0.0192992,0.0192992 208.1298089 1,1 0.4296207,-0.2767269 L0.4296207,-0.2767269 0.429634,-0.2639587 0.4292667,-0.2517582 0.4285507,-0.2401342 0.427518,-0.2290953 0.4262006,-0.2186503 0.4246305,-0.2088079 0.4228396,-0.1995769 0.4208599,-0.190966 0.4187235,-0.1829839 0.4164622,-0.1756394 0.4141473,-0.169047 0.4119782,-0.1635856 0.410046,-0.1592457 0.4084294,-0.1559786 0.4072068,-0.1537357 0.4064566,-0.1524684 0.4539057,-0.1179946 0.4539057,-0.1179946 0.4575983,-0.121972 0.4619905,-0.126091 0.4726511,-0.1346014 0.4854424,-0.143221 0.499919,-0.1516448 0.5155277,-0.1595247 0.5316845,-0.1666069 0.5482056,-0.1729002 0.5649244,-0.178423 A0.0192992,0.0192992 222.5298089 1,1 0.5930596,-0.1520023 L0.5930596,-0.1520023 0.5898972,-0.1396319 0.5865073,-0.1279061 0.582923,-0.1168253 0.5791775,-0.1063901 0.5753039,-0.0966008 0.5713354,-0.0874582 0.5673051,-0.0789625 0.5632462,-0.0711145 0.5591918,-0.0639145 0.555175,-0.057363 0.5512934,-0.0515534 0.5478343,-0.0468031 0.5448835,-0.04308 0.5425052,-0.0403176 0.5407632,-0.0384492 0.5397214,-0.0374083 0.5771066,0.0077826 0.5771066,0.0077826 0.5816723,0.0048485 0.5869508,0.0019512 0.599393,-0.0036407 0.613926,-0.0088085 0.6300427,-0.0133674 0.6471207,-0.0171181 0.6645312,-0.0199597 0.6820983,-0.0219466 0.6996653,-0.0231381 A0.0192992,0.0192992 236.9298089 1,1 0.720346,0.0094495 L0.720346,0.0094495 0.7142066,0.0206447 0.7080071,0.0311591 0.7017797,0.0410004 0.6955568,0.0501764 0.6893704,0.0586947 0.6832529,0.0665632 0.6772364,0.0737897 0.6713533,0.0803818 0.6656357,0.0863473 0.6601158,0.091694 0.6549114,0.0963557 0.6503795,0.1000965 0.6465956,0.1029688 0.643605,0.105053 0.6414531,0.1064295 0.6401852,0.1071786 0.6651573,0.160247 0.6651573,0.160247 0.6703093,0.1585406 0.6761425,0.157047 0.6895844,0.154725 0.704946,0.1533338 0.7216902,0.1529262 0.7391643,0.1535405 0.7567345,0.155118 0.7742439,0.1575622 0.7915553,0.1607769 A0.0192992,0.0192992 251.3298089 1,1 0.8034821,0.1974838 L0.8034821,0.1974838 0.7947514,0.2068005 0.7861319,0.2154428 0.7776527,0.2234262 0.7693433,0.2307663 0.7612328,0.2374786 0.7533507,0.2435785 0.7457261,0.2490817 0.7383884,0.2540036 0.7313669,0.2583598 0.7246908,0.2621657 0.7184905,0.2653868 0.7131707,0.267883 0.7087914,0.2697241 0.7053764,0.270999 0.7029498,0.2717971 0.7015354,0.2722073 0.7125254,0.3298189 0.7125254,0.3298189 0.7179399,0.3294472 0.7239613,0.3294513 0.7375584,0.3305451 0.7527833,0.3330179 0.7691028,0.3367872 0.7858752,0.3417278 0.8025011,0.3476253 0.8188525,0.3543471 0.8348206,0.361766 A0.0192992,0.0192992 265.7298089 1,1 0.8372441,0.4002857 L0.8372441,0.4002857 0.8264707,0.4071385 0.8159727,0.4133657 0.8057745,0.4189896 0.7959007,0.4240327 0.7863758,0.428517 0.7772243,0.4324651 0.7684707,0.4358992 0.7601395,0.4388417 0.7522552,0.4413148 0.7448424,0.443341 0.7380358,0.4449189 0.7322624,0.4460137 0.7275628,0.4467078 0.723938,0.4470935 0.7213892,0.447263 0.7199172,0.4473086 0.7162345,0.5058433 0.7162345,0.5058433 0.7215713,0.5068298 0.7274026,0.5083312 0.7403005,0.5127721 0.7544321,0.5189535 0.7693015,0.5266629 0.7843183,0.5356194 0.7989552,0.5454663 0.8131213,0.5560434 0.8267427,0.5672003 A0.0192992,0.0192992 280.1298089 1,1 0.8195106,0.6051125 L0.8195106,0.6051125 0.8073714,0.6090708 0.7956546,0.6124916 0.7843782,0.6154027 0.7735605,0.6178317 0.7632196,0.6198065 0.7533737,0.6213547 0.7440411,0.622504 0.7352399,0.6232821 0.7269883,0.6237168 0.7193044,0.6238358 0.7123193,0.6236714 0.706455,0.623296 0.7017304,0.6227996 0.6981236,0.6222717 0.6956127,0.621802 0.6941756,0.6214801 0.6760516,0.6772599 0.6760516,0.6772599 0.6809754,0.6795427 0.6862501,0.6824471 0.6976384,0.6899561 0.7097888,0.6994577 0.7222738,0.7106227 0.7345914,0.7230323 0.7463197,0.7362099 0.7574103,0.7499777 0.7678291,0.7641716 A0.0192992,0.0192992 294.5298089 1,1 0.7513958,0.7990942 L0.7513958,0.7990942 0.7386537,0.7999092 0.7264542,0.8003087 0.7148081,0.800324 0.7037262,0.7999865 0.6932191,0.7993275 0.6832975,0.7983785 0.6739723,0.7971707 0.6652541,0.7957357 0.6571536,0.7941046 0.6496815,0.7923089 0.6429568,0.7904126 0.63737,0.7885906 0.6329174,0.7869348 0.6295552,0.7855265 0.6272399,0.7844471 0.625928,0.783778 0.5945016,0.8332982 0.5945016,0.8332982 0.598703,0.8367337 0.6030897,0.8408586 0.6122527,0.8509638 0.6216585,0.8631886 0.6309747,0.8771078 0.6398191,0.8921908 0.6479018,0.9078711 0.65522,0.9239644 0.6617817,0.9403035 A0.0192992,0.0192992 308.9298089 1,1 0.6371797,0.9700421 L0.6371797,0.9700421 0.6246352,0.9676627 0.6127197,0.9650157 0.6014357,0.9621343 0.5907858,0.9590514 0.5807727,0.9558001 0.5713989,0.9524135 0.562667,0.9489246 0.5545795,0.9453665 0.5471392,0.9417722 0.5403484,0.9381747 0.5343065,0.9346656 0.5293484,0.9315115 0.5254474,0.9288004 0.5225411,0.9266002 0.520567,0.9249789 0.5194628,0.9240045 0.4767085,0.9641535 0.4767085,0.9641535 0.4799235,0.968526 0.4831465,0.9736122 0.4895086,0.9856787 0.4955787,0.9998585 0.5011407,1.0156572 0.5059562,1.0324659 0.5098854,1.0496636 0.5129715,1.0670714 0.5152637,1.0845289 A0.0192992,0.0192992 323.3298089 1,1 0.484039,1.107215 L0.484039,1.107215 0.4724803,1.1017906 0.4615974,1.0962636 0.4513845,1.0906664 0.4418359,1.0850319 0.4329459,1.0793926 0.4247088,1.0737812 0.4171188,1.0682304 0.4101704,1.0627728 0.4038576,1.057441 0.3981749,1.0522678 0.3931955,1.0473664 0.3891775,1.0430783 0.3860733,1.0394822 0.3838054,1.0366284 0.3822966,1.0345671 0.3814693,1.0333488 0.3300736,1.0616038 0.3300736,1.0616038 0.3321002,1.0666385 0.3339571,1.0723664 0.3371185,1.085636 0.3394715,1.1008799 0.3409298,1.1175655 0.3414139,1.1350437 0.3409428,1.1526783 0.3396028,1.1703066 0.3374814,1.1877857 A0.0192992,0.0192992 337.7298089 1,1 0.3015959,1.2019938 L0.3015959,1.2019938 0.2917493,1.1938653 0.2825828,1.1858054 0.2740827,1.1778443 0.2662354,1.1700121 0.2590271,1.1623392 0.2524443,1.1548556 0.2464732,1.1475916 0.2411003,1.1405774 0.2363118,1.1338433 0.2320942,1.1274193 0.2284902,1.1214336 0.2256648,1.116281 0.2235524,1.1120259 0.2220655,1.1086977 0.2211167,1.106326 0.2206184,1.1049402 0.1638107,1.1195259 0.1638107,1.1195259 0.1645215,1.1249064 0.1648956,1.1309162 0.1646577,1.1445551 0.1631458,1.1599053 0.1604087,1.1764293 0.1565309,1.1934788 0.151689,1.2104422 0.1460072,1.2271834 0.1396055,1.2435858 A0.0192992,0.0192992 352.1298089 1,1 0.101314,1.2484232 L0.101314,1.2484232 0.0937983,1.2381013 0.0869242,1.228015 0.080671,1.2181901 0.075018,1.2086525 0.0699444,1.199428 0.0654294,1.1905424 0.0614525,1.1820217 0.0579927,1.1738917 0.0550294,1.1661783 0.0525418,1.1589073 0.0505396,1.1522132 0.0490844,1.1465199 0.0480966,1.1418732 0.0474841,1.1382798 0.0471549,1.1357466 0.0470169,1.1342804 -0.0116335,1.1342804 -0.0116335,1.1342804 -0.012283,1.1396686 -0.0134153,1.1455827 -0.0170376,1.1587339 -0.0223194,1.1732258 -0.0290799,1.18855 -0.0370758,1.2040995 -0.0459842,1.2193258 -0.055651,1.2341281 -0.0659306,1.2484232 A0.0192992,0.0192992 6.5298089 1,1 -0.1042221,1.2435858 L-0.1042221,1.2435858 -0.1089348,1.2317192 -0.1130845,1.2202403 -0.1166979,1.2091689 -0.1198014,1.1985251 -0.1224216,1.1883286 -0.1245849,1.1785994 -0.126318,1.1693573 -0.1276472,1.1606223 -0.1285992,1.1524143 -0.1292004,1.1447531 -0.1294749,1.1377714 -0.1294685,1.1318951 -0.1292697,1.1271487 -0.1289693,1.1235159 -0.1286582,1.1209804 -0.1284272,1.1195259 -0.185235,1.1049402 -0.185235,1.1049402 -0.1872041,1.1099976 -0.1897716,1.1154442 -0.1965507,1.1272815 -0.2052706,1.1400046 -0.2156296,1.153166 -0.2272414,1.1662385 -0.2396565,1.178771 -0.2527007,1.1907042 -0.2662124,1.2019938 A0.0192992,0.0192992 20.9298089 1,1 -0.3020979,1.1877857 L-0.3020979,1.1877857 -0.3037114,1.1751199 -0.3048761,1.1629696 -0.3056227,1.1513475 -0.3059817,1.1402662 -0.3059838,1.1297384 -0.3056596,1.1197769 -0.3050398,1.1103942 -0.3041549,1.1016031 -0.3030357,1.0934161 -0.3017128,1.0858461 -0.3002424,1.0790155 -0.2987749,1.0733254 -0.2974019,1.0687775 -0.2962075,1.0653336 -0.2952756,1.0629551 -0.2946902,1.0616038 -0.3460859,1.0333488 -0.3460859,1.0333488 -0.3492509,1.0377576 -0.3530922,1.0423946 -0.3626021,1.0521741 -0.3742122,1.0623289 -0.3875189,1.0725007 -0.4020168,1.0822747 -0.4171586,1.091326 -0.4327607,1.0996403 -0.4486555,1.107215 A0.0192992,0.0192992 35.3298089 1,1 -0.4798802,1.0845289 L-0.4798802,1.0845289 -0.4782932,1.0718598 -0.4763996,1.0598015 -0.4742324,1.0483589 -0.4718243,1.0375365 -0.4692082,1.0273389 -0.4664169,1.017771 -0.4634831,1.0088372 -0.4604398,1.0005423 -0.4573198,0.9928909 -0.4541558,0.9858877 -0.451033,0.9796374 -0.4481964,0.974491 -0.4457356,0.9704275 -0.4437222,0.9673887 -0.4422281,0.9653167 -0.441325,0.9641535 -0.4840793,0.9240045 -0.4840793,0.9240045 -0.4882413,0.9274878 -0.4931151,0.9310238 -0.5047583,0.938131 -0.518529,0.9450795 -0.5339473,0.9516225 -0.5504204,0.9574839 -0.5673375,0.9624853 -0.5845171,0.9666583 -0.6017963,0.9700421 A0.0192992,0.0192992 49.7298089 1,1 -0.6263982,0.9403035 L-0.6263982,0.9403035 -0.6217103,0.928427 -0.6168775,0.9172185 -0.6119327,0.9066743 -0.6069089,0.8967908 -0.6018389,0.8875643 -0.5967558,0.8789911 -0.5916925,0.8710676 -0.586682,0.8637901 -0.5817571,0.857155 -0.5769509,0.8511587 -0.5723718,0.8458814 -0.5683445,0.8416021 -0.5649504,0.8382782 -0.5622446,0.8358356 -0.5602822,0.8342003 -0.5591182,0.8332982 -0.5905446,0.783778 -0.5905446,0.783778 -0.5954421,0.7861167 -0.6010421,0.7883296 -0.614087,0.792318 -0.6291531,0.7956236 -0.6457142,0.7981266 -0.6631275,0.7997072 -0.6807569,0.8003443 -0.6984345,0.8001139 -0.7160124,0.7990942 A0.0192992,0.0192992 64.1298089 1,1 -0.7324457,0.7641716 L-0.7324457,0.7641716 -0.7249515,0.7538341 -0.7174831,0.7441796 -0.7100714,0.7351964 -0.7027475,0.7268728 -0.6955423,0.719197 -0.6884868,0.7121572 -0.6816121,0.7057418 -0.6749491,0.6999391 -0.6685289,0.6947372 -0.6623825,0.6901245 -0.6566348,0.6861518 -0.6516698,0.6830085 -0.6475557,0.680633 -0.6443275,0.6789401 -0.64202,0.6778442 -0.6406682,0.6772599 -0.6587922,0.6214801 -0.6587922,0.6214801 -0.6641174,0.6225274 -0.6700918,0.6232781 -0.6837188,0.623897 -0.6991336,0.623352 -0.7157968,0.6216578 -0.7330562,0.6188582 -0.7502901,0.6150911 -0.7673551,0.6104716 -0.7841271,0.6051125 A0.0192992,0.0192992 78.5298089 1,1 -0.7913592,0.5672003 L-0.7913592,0.5672003 -0.7815297,0.5590513 -0.771895,0.5515574 -0.7624821,0.5446997 -0.7533182,0.5384589 -0.7444305,0.5328161 -0.7358459,0.5277522 -0.7275918,0.523248 -0.719695,0.5192846 -0.7121829,0.5158428 -0.7050824,0.5129035 -0.6985273,0.510485 -0.6929366,0.5086752 -0.6883611,0.5073975 -0.6848132,0.5065606 -0.6823057,0.506073 -0.6808511,0.5058433 -0.6845338,0.4473086 -0.6845338,0.4473086 -0.6899521,0.4469987 -0.6959256,0.44624 -0.7092783,0.4434506 -0.7240733,0.4390891 -0.7397917,0.4333042 -0.7558126,0.4263004 -0.7715682,0.4183657 -0.7869483,0.4096474 -0.8018606,0.4002857 A0.0192992,0.0192992 92.9298089 1,1 -0.7994372,0.361766 L-0.7994372,0.361766 -0.7878899,0.3563175 -0.7766942,0.3514552 -0.7658715,0.3471537 -0.7554436,0.343388 -0.7454317,0.3401328 -0.7358576,0.3373628 -0.7267426,0.3350529 -0.7181083,0.3331778 -0.7099762,0.3317123 -0.7023678,0.3306313 -0.6954172,0.3299189 -0.6895521,0.3295563 -0.6848025,0.3294567 -0.681158,0.3295284 -0.678608,0.3296797 -0.6771419,0.3298189 -0.666152,0.2722073 -0.666152,0.2722073 -0.671323,0.2705597 -0.6769201,0.2683393 -0.6891597,0.2623168 -0.7024052,0.254413 -0.7161911,0.2449009 -0.7299669,0.2341328 -0.7432543,0.2225291 -0.755983,0.2102599 -0.7680987,0.1974838 A0.0192992,0.0192992 107.3298089 1,1 -0.7561719,0.1607769 L-0.7561719,0.1607769 -0.7436324,0.1583713 -0.7315792,0.156446 -0.7200269,0.1549712 -0.70899,0.1539171 -0.6984832,0.1532539 -0.6885209,0.152952 -0.6791178,0.1529815 -0.6702885,0.1533125 -0.6620474,0.1539155 -0.6544093,0.1547605 -0.6474998,0.155799 -0.6417288,0.1569064 -0.6371037,0.1579911 -0.6335915,0.1589669 -0.6311592,0.1597476 -0.6297738,0.160247 -0.6048017,0.1071786 -0.6048017,0.1071786 -0.6094006,0.1042967 -0.6142696,0.1007541 -0.624627,0.091877 -0.6354907,0.0809275 -0.646478,0.0682857 -0.6571431,0.0544301 -0.6671273,0.0398865 -0.6764048,0.0248373 -0.6849626,0.0094495 A0.0192992,0.0192992 121.7298089 1,1 -0.6642819,-0.0231381 L-0.6642819,-0.0231381 -0.6515381,-0.0223497 -0.6393848,-0.021217 -0.6278286,-0.0197726 -0.6168763,-0.0180488 -0.6065347,-0.0160781 -0.5968103,-0.0138931 -0.58771,-0.0115261 -0.5792404,-0.0090096 -0.5714082,-0.0063762 -0.5642201,-0.0036582 -0.557786,-0.000934 -0.5524717,0.0015738 -0.5482616,0.0037747 -0.5451025,0.0055932 -0.5429408,0.0069543 -0.5417231,0.0077826 -0.5043379,-0.0374083 -0.5043379,-0.0374083 -0.5080756,-0.0413434 -0.5119107,-0.0459855 -0.519735,-0.0571595 -0.5275344,-0.0704667 -0.5350326,-0.0854437 -0.5419169,-0.1015163 -0.5479706,-0.118086 -0.5532141,-0.1349697 -0.5576762,-0.1520023 A0.0192992,0.0192992 136.1298089 1,1 -0.529541,-0.178423 L-0.529541,-0.178423 -0.5173936,-0.1744901 -0.5059038,-0.1703706 -0.4950699,-0.1660976 -0.4848904,-0.1617042 -0.4753638,-0.1572236 -0.4664883,-0.1526889 -0.4582625,-0.1481331 -0.4506848,-0.1435894 -0.4437536,-0.1390909 -0.4374673,-0.1346707 -0.4319129,-0.130432 -0.4273891,-0.1266813 -0.4238587,-0.1235027 -0.421251,-0.1209556 -0.4194957,-0.1190997 -0.4185223,-0.1179946 -0.3710731,-0.1524684 -0.3710731,-0.1524684 -0.3737148,-0.1572094 -0.3762749,-0.1626594 -0.3810745,-0.1754282 -0.3853195,-0.190257 -0.3888575,-0.2066282 -0.3915284,-0.2239079 -0.3932712,-0.2414624 -0.3941512,-0.2591197 -0.3942373,-0.2767269 A0.0192992,0.0192992 150.5298089 1,1 -0.3604155,-0.2953206 L-0.3604155,-0.2953206 -0.3496278,-0.2884903 -0.3395234,-0.2816428 -0.3300926,-0.2748098 -0.3213255,-0.268023 -0.3132124,-0.2613139 -0.3057435,-0.2547144 -0.2989091,-0.2482561 -0.2926994,-0.2419706 -0.2871047,-0.2358897 -0.2821152,-0.2300451 -0.2777894,-0.2245582 -0.2743405,-0.2198004 -0.2717115,-0.2158436 -0.2698192,-0.212728 -0.2685805,-0.2104939 -0.2679125,-0.2091814 -0.2133808,-0.2307721 -0.2133808,-0.2307721 -0.2147604,-0.236021 -0.2158847,-0.2419366 -0.2173581,-0.2554978 -0.217782,-0.2709164 -0.2171375,-0.2876531 -0.2154272,-0.3050542 -0.2127496,-0.3224906 -0.2092107,-0.339812 -0.2049153,-0.3568874 A0.0192992,0.0192992 164.9298089 1,1 -0.1675321,-0.3664858 L-0.1675321,-0.3664858 -0.1587819,-0.3571874 -0.1506979,-0.3480422 -0.1432626,-0.3390785 -0.1364588,-0.3303245 -0.130269,-0.3218086 -0.124676,-0.313559 -0.1196625,-0.3056039 -0.115211,-0.2979717 -0.1113043,-0.2906905 -0.1079251,-0.2837886 -0.1050997,-0.2773983 -0.1029424,-0.2719323 -0.10138,-0.2674459 -0.1003219,-0.2639577 -0.0996778,-0.2614857 -0.0993572,-0.2600484 -0.0411693,-0.2673992 -0.0411693,-0.2673992 -0.0412002,-0.2728263 -0.0408181,-0.2788356 -0.0388726,-0.2923372 -0.0354488,-0.3073768 -0.0306622,-0.3234275 -0.0246782,-0.3398565 -0.0177484,-0.3560793 -0.0100131,-0.3719764 -0.0016062,-0.3874471 A0.0192992,0.0192992 179.3298089 1,1 0.0369896,-0.3874471z" fill="rgb(0,0,0)" shaper:cutDepth="0.0020009" shaper:pathType="exterior" transform="matrix(1,0,0,-1,0.8201734,1.2655277)" vector-effect="non-scaling-stroke" /><path d="M0.1329113,0.2190228 A0.2450641,0.2450641 291.917564 1,1 -0.1982616,0.3953678 L-0.1990938,0.3958065 -0.3156345,0.1491034 -0,0 0.1329113,0.2190228z" fill="rgb(255,255,255)" shaper:cutDepth="0.0020009" shaper:pathType="interior" stroke="rgb(0,0,0)" transform="matrix(1,0,0,-1,0.8201734,1.2655277)" vector-effect="non-scaling-stroke" /></svg>